<?xml version="1.0" encoding="UTF-8"?>
<!DOCTYPE svg PUBLIC "-//W3C//DTD SVG 1.1//EN" "http://www.w3.org/Graphics/SVG/1.1/DTD/svg11.dtd">
<!-- Creator: CorelDRAW -->
<svg xmlns="http://www.w3.org/2000/svg" xml:space="preserve" width="3.74474in" height="3.74474in" version="1.1" style="shape-rendering:geometricPrecision; text-rendering:geometricPrecision; image-rendering:optimizeQuality; fill-rule:evenodd; clip-rule:evenodd"
viewBox="0 0 466.52 466.52"
 xmlns:xlink="http://www.w3.org/1999/xlink"
 xmlns:xodm="http://www.corel.com/coreldraw/odm/2003">
 <defs>
  <style type="text/css">
   <![CDATA[
    .fil1 {fill:#211D59}
    .fil2 {fill:#54C6CF}
    .fil0 {fill:white}
   ]]>
  </style>
 </defs>
 <g id="Слой_x0020_1">
  <metadata id="CorelCorpID_0Corel-Layer"/>
  <rect class="fil0" width="466.52" height="466.52"/>
  <g id="_2025036323616">
   <path class="fil1" d="M222.7 302.41l52.8 0 0 53.31 -52.8 0 0 -53.31zm-96.05 -20.62c1.19,0.8 4.33,4.99 7.19,7.4 8.18,6.87 20.16,13.22 32.04,13.22l45.76 0 0 53.31 -42.75 0c-9.16,0 -16.45,-2.84 -22.23,-6.43 -13.2,-8.21 -20.1,-21.89 -20.02,-38.32 0.05,-9.72 0,-19.45 0,-29.17zm95.87 10.09c0.04,-11.58 0.01,-23.16 0.01,-34.73 0,-11.64 0.5,-20.91 5.69,-29.2 4.68,-7.49 9.62,-12.63 17.9,-16.83 8.56,-4.34 18.58,-5.38 29.87,-4.54l0 85.29 -53.47 0.01zm64.15 -85.39l53.03 0.05c0.54,3.46 0.19,28.78 0.19,34.52 0,12.02 -0.36,20.4 -5.46,29.25 -3.95,6.85 -10.4,13.41 -17.76,16.95 -11.07,5.31 -16.55,4.59 -30.17,4.62l0.18 -85.39zm-160.02 32.05l58.84 -0.01c11.93,0 21.02,7.65 24.36,15.86 3.59,8.84 2.2,26.5 2.23,37.42l-41.68 0.06c-24.23,0 -43.76,-17.99 -43.76,-42.27l0 -8.55 0 -2.51zm-0 -63.87l41.74 0c23.09,0 40.39,16.64 43.13,36.83 0.89,6.58 0.12,19.75 0.12,27.04 -1.6,-1.07 -2.77,-2.54 -4.66,-3.89 -1.64,-1.17 -3.61,-2.29 -5.39,-3.16 -3.03,-1.49 -9.1,-3.51 -13.59,-3.51l-61.35 0 0 -53.31zm0 -12.07l0 -51.8 75.44 0c22.04,0 39.01,9.25 53.44,23.51 14.96,14.79 20.49,35.53 20.49,56.96l0 4.53c-13.36,0 -23.98,-0.28 -35.87,6.38 -7.99,4.47 -11.76,8.21 -17.44,14.75 0,-25.15 -18.12,-46.56 -41.77,-51.77 -7.86,-1.73 -39.32,-1.08 -50.81,-0.99 -1.87,0.01 -3.48,0.39 -3.48,-1.55zm-10.56 -57.83l0 211.72c0,7.52 3.01,16.29 5.82,21.34 0.88,1.59 1.38,2.81 2.31,4.22 0.96,1.46 1.96,2.64 3,4.04 11.27,15.21 28.39,20.69 47.71,20.69l104.1 0c3.79,0 7.54,-1.26 7.54,-5.53l0 -58.84c13.44,0 21.71,1.01 34.03,-5.2 11.22,-5.65 19.5,-13.89 24.98,-25.31 2.37,-4.95 4.85,-13.21 4.85,-20.29l0 -50.79c0,-3.15 -2.79,-5.03 -6.03,-5.03l-57.83 0c0,-19.05 -0.03,-30.85 -8.72,-48.11 -4.54,-9.03 -11.45,-18.87 -19.3,-25.46 -1.18,-0.99 -1.58,-1.65 -2.87,-2.66 -19.9,-15.58 -36.15,-19.82 -63.66,-19.82l-68.39 0c-3.82,0 -7.54,1.29 -7.54,5.03z"/>
   <path class="fil2" d="M222.51 291.88l53.47 -0.01 -0 -85.29c-11.3,-0.83 -21.32,0.21 -29.87,4.54 -8.28,4.2 -13.22,9.34 -17.9,16.83 -5.18,8.29 -5.69,17.56 -5.69,29.2 0,11.58 0.03,23.16 -0.01,34.73z"/>
   <path class="fil2" d="M286.49 291.88c13.63,-0.03 19.1,0.69 30.17,-4.62 7.36,-3.53 13.81,-10.1 17.76,-16.95 5.1,-8.85 5.46,-17.23 5.46,-29.25 0,-5.74 0.35,-31.06 -0.19,-34.52l-53.03 -0.05 -0.18 85.39z"/>
   <path class="fil2" d="M126.64 241.06l-0 8.55c-0,24.29 19.53,42.27 43.76,42.27l41.68 -0.06c-0.03,-10.92 1.36,-28.59 -2.23,-37.42 -3.34,-8.21 -12.43,-15.86 -24.36,-15.86l-58.84 0.01 -0 2.51z"/>
  </g>
 </g>
</svg>
