<?xml version="1.0" encoding="UTF-8"?>
<!DOCTYPE svg PUBLIC "-//W3C//DTD SVG 1.1//EN" "http://www.w3.org/Graphics/SVG/1.1/DTD/svg11.dtd">
<!-- Creator: CorelDRAW -->
<svg xmlns="http://www.w3.org/2000/svg" xml:space="preserve" width="706.526mm" height="206.033mm" version="1.1" style="shape-rendering:geometricPrecision; text-rendering:geometricPrecision; image-rendering:optimizeQuality; fill-rule:evenodd; clip-rule:evenodd"
viewBox="0 0 129500.13 37764.08"
 xmlns:xlink="http://www.w3.org/1999/xlink"
 xmlns:xodm="http://www.corel.com/coreldraw/odm/2003">
 <defs>
  <style type="text/css">
   <![CDATA[
    .fil0 {fill:#211D59}
    .fil1 {fill:#54C6CF}
    .fil2 {fill:#7C7599}
   ]]>
  </style>
 </defs>
 <g id="Слой_x0020_1">
  <metadata id="CorelCorpID_0Corel-Layer"/>
  <g id="_2095937615984">
   <path class="fil0" d="M13706.46 26055.19l6788.56 0 0 6853.21 -6788.56 0 0 -6853.21zm-12348.75 -2650.78c153.36,102.68 556.55,641.68 924.16,950.79 1051.18,883.87 2591.37,1699.99 4118.8,1699.99l5883.42 0 0 6853.21 -5495.5 0c-1177.98,0 -2115.22,-364.97 -2858.1,-827.12 -1696.86,-1055.69 -2584.06,-2814.66 -2573.19,-4926.56 6.43,-1249.5 0.42,-2500.65 0.42,-3750.31zm12324.57 1297.3c4.62,-1488.23 0.88,-2977.02 0.86,-4465.31 -0.04,-1495.8 64.83,-2687.64 731.19,-3753.72 601.49,-962.28 1236.58,-1623.45 2301.52,-2163.15 1100.1,-557.5 2388.43,-691.03 3840.63,-584.11l0.49 10965.26 -6874.69 1.03zm8247.29 -10978.04l6817.1 6.53c69.05,444.81 24.58,3699.92 24.58,4437.32 0,1545.59 -46.45,2622.64 -702.57,3760.99 -507.3,880.13 -1336.38,1724.59 -2282.77,2178.79 -1423.55,683.16 -2127.06,589.81 -3879.03,594.03l22.69 -10977.65zm-20571.79 4120.85l7564.35 -1.12c1533.4,0 2702.6,982.94 3131.86,2038.6 461.88,1135.88 282.65,3406.89 286.61,4811.14l-5358.07 7.86c-3115.15,0 -5625.95,-2312.17 -5625.51,-5434.41l0.35 -1099.09 0.4 -323zm-0.07 -8211.22l5366.21 0c2968.7,0 5192.19,2139.74 5544.8,4735.04 114.89,845.62 15.36,2539.23 15.36,3475.9 -206,-137.95 -355.49,-326.13 -599,-500.11 -211.24,-150.92 -464.46,-294.22 -692.49,-406.6 -389.38,-191.89 -1169.51,-451.01 -1747.21,-451.01l-7887.67 0 0 -6853.23zm0 -1551.67l0 -6659.25 9697.97 0c2833.56,0 5015.18,1189.23 6869.67,3022.24 1923.19,1900.92 2634.32,4567.73 2634.32,7322.24l0 581.88c-1717.2,0 -3082.72,-35.76 -4611.17,819.68 -1027.31,574.99 -1511.7,1055.5 -2242.04,1895.76 0,-3233.85 -2329.52,-5986.22 -5369.91,-6655.57 -1010.71,-222.5 -5054.92,-138.82 -6531.85,-127.41 -240.99,1.85 -446.99,49.87 -446.99,-199.57zm-1357.71 -7435.09l0 27218.92c0,967.27 387.26,2093.72 748.23,2743.05 113.49,204.17 177.72,361.16 297.39,543.09 123.19,187.31 252.28,339.93 385.5,519.63 1449.23,1954.78 3649.85,2659.52 6133.3,2659.52l13383.17 0c486.8,0 969.79,-161.52 969.79,-711.17l0 -7564.4c1727.85,0 2790.91,129.81 4374.98,-667.97 1441.92,-726.16 2507.12,-1785.35 3211.87,-3253.44 305.36,-636.13 624.09,-1698.71 624.09,-2608.55l0 -6529.96c0,-404.51 -358.5,-646.54 -775.84,-646.54l-7435.11 0c0,-2448.44 -3.65,-3965.93 -1120.52,-6185.26 -584.08,-1160.62 -1472.51,-2425.29 -2480.92,-3273.2 -151.82,-127.64 -202.92,-211.5 -369.39,-341.78 -2558.33,-2002.44 -4647.92,-2548.48 -8183.94,-2548.48l-8792.82 0c-491.06,0 -969.79,165.97 -969.79,646.54z"/>
   <path class="fil1" d="M13682.28 24701.71l6874.69 -1.03 -0.49 -10965.26c-1452.2,-106.91 -2740.54,26.61 -3840.63,584.11 -1064.94,539.7 -1700.03,1200.87 -2301.52,2163.15 -666.36,1066.08 -731.22,2257.91 -731.19,3753.72 0.02,1488.29 3.76,2977.07 -0.86,4465.31z"/>
   <path class="fil1" d="M21906.88 24701.33c1751.97,-4.22 2455.48,89.13 3879.03,-594.03 946.39,-454.2 1775.47,-1298.66 2282.77,-2178.79 656.13,-1138.35 702.57,-2215.41 702.57,-3760.99 0,-737.4 44.47,-3992.51 -24.58,-4437.32l-6817.1 -6.53 -22.69 10977.65z"/>
   <path class="fil1" d="M1357.38 18167.52l-0.35 1099.09c-0.44,3122.24 2510.36,5434.41 5625.51,5434.41l5358.07 -7.86c-3.96,-1404.25 175.26,-3675.27 -286.61,-4811.14 -429.27,-1055.67 -1598.47,-2038.6 -3131.86,-2038.6l-7564.35 1.12 -0.4 323z"/>
   <path class="fil0" d="M41765.87 14223.67c82.41,353.72 212.95,618.46 342.55,950.51l716.08 1870.03c126.18,355.44 282.62,645.79 363.74,993.99l-2909.38 0c23.46,-281.99 568.64,-1572.37 703.62,-1947.16 80.12,-222.44 607.12,-1738.21 783.39,-1867.37zm-4202.43 6917.88c0,457.72 305.09,711.19 775.84,711.19 558.75,0 678.01,-665.15 849.79,-1089.8 177.02,-437.59 356.43,-1023.21 572.57,-1431.67l3943.85 0c66.81,286.81 802.61,2176.55 961.57,2335.74 307.65,308.11 1171.98,332.07 1171.98,-525.46 0,-317.44 -2703.49,-7200.04 -3064.5,-8055.84 -406.17,-962.88 -1595.74,-1023.15 -2061.83,-44.5l-3149.26 8100.35z"/>
   <path class="fil0" d="M56054.21 33167.01c-365.24,0 -728.99,-87.96 -992.78,-235.64 -179.04,-100.22 -558.89,-380.75 -558.89,-604.84l0 -2198.2c0,-344.15 1515.77,-1655.27 2765.61,-308.81 1132.23,1219.75 257.8,3347.49 -1213.94,3347.49zm-1616.34 -4461.06c-20.38,-915.19 -1357.71,-897.03 -1357.71,193.96l0 8016.98c0,1072.47 1182.96,1053.36 1387.08,352.62 88.95,-305.33 35.32,-726.84 35.3,-1063.81 -0.09,-754.28 0,-1508.56 0,-2262.86 227.94,60.87 459.05,262.89 739.09,360.02 1971.13,683.73 3980.58,-932.48 3980.58,-3010.78 0,-2619.89 -2366.62,-3953.93 -4010.64,-3105.49 -565.12,291.65 -470.12,438.3 -773.69,519.36z"/>
   <path class="fil0" d="M83725.7 29731.98c-145.77,-230.21 -31.34,-3026.32 -25.77,-3507.72 197.66,-39.26 1443.84,-84.94 1539.37,24.89 1104.77,73.68 1972.25,1135.89 1480.32,2412.02 -413.56,1072.8 -1499.78,1146.34 -2993.92,1070.81zm-1487.01 -4194.02l0 8081.63c0,1051.82 1487.01,1051.8 1487.01,-129.31l0 -2456.82c1458.5,0 2664.2,170.99 3768.34,-886.67 217.31,-208.18 474.87,-581.35 602.33,-884.69 340.89,-811.38 385.41,-1729.98 5.37,-2540.02 -1021.12,-2176.48 -3145.06,-1830.64 -5216.53,-1830.64 -325.05,0 -646.52,321.47 -646.52,646.52z"/>
   <path class="fil0" d="M37692.73 29352.49c0,1609.12 292.66,2641.76 1405.92,3766.33 2200.45,2222.83 6352.46,1268.71 6352.46,-16.46 0,-413.69 -315.81,-581.88 -711.19,-581.88 -354.96,0 -944.59,581.88 -2198.21,581.88 -3233.68,0 -4255.83,-3712.48 -2532.46,-5894.43 818.69,-1036.55 2478.52,-1365.14 3735.57,-868.82 274.59,108.42 615.62,362.61 930.46,362.61 330.91,0 646.52,-340.02 646.52,-646.52 0,-912.97 -1962.37,-1293.07 -3103.34,-1293.07 -2423.64,0 -4525.72,2159.21 -4525.72,4590.37z"/>
   <path class="fil0" d="M75773.38 12672l0 8469.55c0,720.19 935.28,972.98 1305.55,400.42 221.76,-342.92 112.38,-2858.34 113.16,-3507.43 0.48,-401.37 33.76,-451.41 243.67,-661.48 606.02,-606.51 781.77,-627.92 1570.28,-627.92 388.85,0 784.82,337.29 909.99,771 220.41,763.67 -141.32,3591.85 172.92,4029.53 406.47,566.17 1244.6,297.72 1244.6,-274.81l0 -3814.53c0,-1111 -955.24,-2004.24 -2262.86,-2004.24 -935.01,0 -1321.04,404.93 -1874.92,775.84l-12.26 -3672.98c-143.87,-887.2 -1410.12,-734.87 -1410.12,117.05z"/>
   <path class="fil0" d="M55264.42 21270.86l45.2 -3427.05 2878.13 -13.51c808.21,51.17 947.93,-1237.9 -126.97,-1281.45 -817.37,-33.14 -1900.16,-27.37 -2717.77,9.93 -139.67,-244.91 -64.41,-2651.62 -37.65,-2824.34 407.15,-116.23 2673.01,-43.77 3270.3,-42.8 767.88,52.68 846.48,-1044.6 228.38,-1248.03 -162.25,-53.39 -4256.49,-99.07 -4566.65,27.92 -544.93,223.1 -381.41,1166.45 -381.41,2010.76 0,617.99 -75.41,6640.41 41.75,6940.77 253.35,649.46 1371.94,552.33 1366.68,-152.21z"/>
   <path class="fil0" d="M115987.57 29158.53c871.61,0 1600.48,325.78 1680.98,1293.05l-3103.34 0c25.97,-312.2 278.25,-717.42 465.25,-892.45 196.27,-183.73 597.16,-400.6 957.11,-400.6zm-2909.38 2004.24c0,4220.36 5560.16,3611.78 5560.16,2327.51 0,-1204.26 -1264.91,-323.27 -1939.59,-323.27 -1192.24,0 -2173.18,-557.08 -2198.21,-1680.97l3491.26 0c1344.11,0 1023.59,-1315.15 712.4,-1940.8 -354.38,-712.47 -614.81,-1024.16 -1358.85,-1356.58 -1994.69,-891.22 -4267.17,646.32 -4267.17,2974.11z"/>
   <path class="fil0" d="M71183.01 20753.63c-778.81,0 -1506.25,-953.3 120.29,-1431.38 317.52,-93.31 1089.08,-249.61 1496.04,-249.61 0,878.85 152.85,1024.98 -656.82,1412.1 -225.71,107.9 -652.32,268.89 -959.51,268.89zm-1099.09 -3620.57c166.87,0 2715.43,-1255.93 2715.43,646.54l0 258.61c-1079.62,0 -3814.53,395.71 -3814.53,2004.24 0,1958.58 1968.7,2303.44 3302.27,1491.99 209.56,-127.5 299.04,-215.4 512.26,-328.24 20.38,915.21 1357.71,897.03 1357.71,-193.96 0,-864.59 71.59,-3445.99 -103.78,-4163.32 -84.57,-346 -218.58,-523.94 -427.69,-736.06 -947.6,-961.18 -2773.75,-749.86 -3724.41,-196.98 -823.58,478.98 -305.24,1217.18 182.74,1217.18z"/>
   <path class="fil0" d="M91290.11 33231.67c-1243.32,0 -1067.47,-902.77 -648.6,-1165.83 391.64,-245.98 1691.1,-478.17 2135.6,-515.16l0 1034.44c-352.62,186.59 -907.48,646.54 -1487.01,646.54zm-1810.3 -4267.1c0,1272.08 1274.37,258.61 2068.9,258.61 353.79,0 823.03,30.7 1049.18,308.53 175.13,215.15 179.22,605.67 179.22,984.53 -381.19,88.8 -891.93,126.34 -1293.73,193.28 -1148.52,191.32 -2520.79,566.98 -2520.79,2004.92 0,1398.09 1591.92,2355.68 3400.77,1267.22 178.6,-107.46 267.86,-199.73 413.74,-297.43 20.66,926.52 1357.73,949.76 1357.73,-129.31l0 -3361.95c0,-772.28 -182.16,-1284.51 -596.3,-1666.56 -1249,-1152.19 -4058.73,-391.6 -4058.73,438.16z"/>
   <path class="fil0" d="M48619.1 33231.67c-298.6,0 -514.98,17.71 -732.74,-172.4 -329.34,-287.47 -318.63,-751.24 84.52,-993.05 422.07,-253.18 1653.82,-475.46 2135.25,-515.53l0 1034.44c-389.4,206.06 -913.45,646.54 -1487.03,646.54zm-1293.07 -3620.57c326.06,0 474.76,-122.73 750.12,-219.67 491.83,-173.17 1463.25,-340.08 1841.77,149.25 166.58,215.33 188.2,579.92 188.2,975.57 -886.93,206.62 -1329.83,92.43 -2482.37,491.66 -2686.15,930.46 -944.01,4473.01 1643.74,3195.43 558.34,-275.67 381.37,-212.91 838.63,-519.1 20.44,917.72 1357.71,1033.07 1357.71,-258.61l0 -2974.05c0,-1106.77 -226.58,-1954.62 -1235.38,-2320.54 -950.88,-344.9 -2164.1,-173.65 -2924.91,229.15 -249.11,131.9 -497.71,286.69 -529.99,622.22 -28.52,296.51 188.37,628.69 552.48,628.69z"/>
   <path class="fil0" d="M70859.75 33231.67c-1128.31,0 -1755.16,-1405.81 1551.67,-1680.98l0 1034.44c-381.61,255.54 -930.04,646.54 -1551.67,646.54zm-1745.63 -4267.1c0,1250.08 1131.05,258.61 2327.51,258.61 982.5,0 969.79,709.01 969.79,1293.07 -1134.68,264.34 -3814.53,174.81 -3814.53,2198.2 0,1388.87 1578.14,2184.17 2975.24,1488.23 614.76,-306.24 374.15,-206.97 839.29,-518.44 20.31,912.22 1357.71,970.27 1357.71,-129.31l0 -3491.26c0,-2093.48 -2075.23,-2460.03 -3741.42,-1866.48 -344.88,122.86 -913.6,302.38 -913.6,767.39z"/>
   <path class="fil0" d="M61743.66 20753.63c-887.15,0 -1402.53,-1051.93 114.25,-1437.43 297.13,-75.52 1077.83,-243.56 1437.43,-243.56l0 905.15c0,322.67 -1122.02,775.84 -1551.67,775.84zm-1099.09 -3620.57c468.86,0 373.33,-387.92 1810.28,-387.92 977.58,0 840.48,739.76 840.48,1293.07 -1126.12,25.09 -3749.87,414.68 -3749.87,2004.24 0,1049.78 527.62,1737.36 1555.89,1875.16 1292.68,173.23 1950.97,-629.26 2258.65,-711.41 20.82,935.37 1293.05,788.9 1293.05,64.67l0 -4137.8c0,-1061.42 -1115.31,-1680.97 -2327.51,-1680.97 -1818.67,0 -2796.68,982.19 -2108.68,1526.63 60.06,47.53 350.86,154.33 427.71,154.33z"/>
   <path class="fil0" d="M107647.34 28770.62c-81.16,-975.17 -1422.38,-962.48 -1422.38,64.65l0 4719.66c0,820.87 871.77,1122.04 1283.74,507.9 258.79,-385.79 132.34,-2856.69 134.32,-3550.9 3.79,-1321.33 2459.77,-1932.66 2732.23,-331.43 199.77,1174.02 -189.34,3572.09 225.25,3977.26 449.01,438.82 1184.63,152.72 1184.63,-473.52l0 -3620.57c0,-1764.18 -2110,-2811.6 -3750.99,-1617.42 -162.25,118.06 -224.28,215.53 -386.8,324.37z"/>
   <path class="fil0" d="M124845.04 29805.06c0,2059.55 3297.3,1696.55 3297.3,2844.74 0,476.91 -559.97,581.88 -1034.44,581.88 -1034.3,0 -1396.28,-637.52 -1934.38,-452.49 -802.45,275.93 -547.44,1680.89 2063.7,1680.89 1046.47,0 2262.84,-656.86 2262.84,-1680.98 0,-743.8 21.59,-1047.47 -691.01,-1571.83 -819.79,-603.25 -3195.17,-898.81 -2464.77,-1776.02 424.12,-509.4 1576.82,-147.9 2032.41,13.36 943.53,333.99 1445.2,-838.52 162.89,-1265.17 -1811.91,-602.83 -3694.53,26.23 -3694.53,1625.63z"/>
   <path class="fil0" d="M62907.42 28835.26c0,546.89 461.12,452.56 969.79,452.56l0 2715.43c0,1520.79 528.5,2456.82 2068.9,2456.82 472.69,0 1939.59,-249.51 1939.59,-969.79 0,-1022.07 -1186.26,-433.85 -1204.32,-428.5 -668.9,198.28 -1381.8,159.54 -1381.8,-735.26 0,-3303.15 -224.04,-3054.19 579.62,-3040.93 1205.6,19.87 1877.18,195.5 1877.18,-644.29 0,-814.36 -1325.56,-581.88 -2456.8,-581.88 0,-616.48 92.51,-969.79 -517.23,-969.79 -108.51,0 -1874.94,1408.92 -1874.94,1745.63z"/>
   <path class="fil0" d="M100276.88 28899.91c0,355.9 285.27,381.76 650.26,384.2 529.66,3.54 390.14,150.83 384.75,714.36 -6.82,710.29 -0.15,1423.48 -0.57,2134.12 -0.57,973.22 82.48,1737.88 1033.47,2134.52 1034.88,431.63 2910.37,51.89 2910.37,-841.47 0,-1025.97 -1358.06,-258.62 -1680.97,-258.62 -647.22,0 -905.15,-319.7 -905.15,-969.79 0,-3182.07 -214.63,-2924.71 579.64,-2911.62 1321.02,21.78 1877.18,169.34 1877.18,-644.29 0,-814.36 -1325.58,-581.88 -2456.82,-581.88 0,-442.41 85.01,-969.79 -387.92,-969.79 -376.1,0 -837.9,576.34 -1099.11,775.84 -242.93,185.55 -905.15,713.59 -905.15,1034.44z"/>
   <path class="fil0" d="M75385.46 25279.35l0 8210.92c0,450.48 225.38,784.32 620.07,871.06 413.67,90.91 802.28,-265.99 802.28,-677.1l0 -8469.55c0,-1058.71 -1422.36,-1038.07 -1422.36,64.67z"/>
   <path class="fil0" d="M66334.03 12736.65l0 8340.26c0,1038.03 1422.36,1076.29 1422.36,-64.67l0 -8340.24c0,-898.73 -1422.36,-1030.32 -1422.36,64.65z"/>
   <path class="fil0" d="M47002.78 12801.31l0 8210.92c0,1140.95 1422.36,1102.7 1422.36,64.67l0 -8469.55c0,-780.18 -1422.36,-1017.82 -1422.36,193.96z"/>
   <path class="fil0" d="M97173.53 28964.57c0,-1356.72 -1422.36,-1017.49 -1422.36,-193.96l0 4784.31c0,962.37 1146.8,1130.32 1386.32,287.22 203.38,-715.94 -180.27,-3268.36 179.81,-3699.35 767.53,-918.69 1459.68,-655.43 1825.05,-761.08 311.06,-89.94 553.23,-386.6 532.99,-733.06 -49.95,-855.48 -1343.4,-1016.83 -2501.82,315.92z"/>
   <path class="fil0" d="M121733.3 28899.91l-96.34 106.14 -43.62 -300.1c82.28,-869.37 -1300.29,-907.38 -1342.28,61.05 -38.4,885.66 3.61,1884.8 3.61,2783.68 0,670.96 -145.35,2164.32 151.4,2564.06 201.53,271.47 629.75,349.76 932.31,136.83 671.78,-472.78 49.25,-2093.32 278.18,-3731.17 39.24,-280.78 362.48,-624.25 587.98,-769.73 358.59,-231.33 540.31,-305.58 1088.09,-334.27 1091.34,-57.11 1129.33,-1223.6 298.84,-1399.56 -785.59,-166.45 -1555.61,481.69 -1858.17,883.06z"/>
   <path class="fil0" d="M60515.26 28705.95l0 4978.29c0,890.61 1422.36,1003.34 1422.36,-193.96l0 -4590.37c0,-1211.78 -1422.36,-974.14 -1422.36,-193.96z"/>
   <path class="fil0" d="M60385.95 25925.88c0,1084.11 1680.98,1031.2 1680.98,0 0,-1078.07 -1680.98,-1177.15 -1680.98,0z"/>
   <path class="fil2" d="M55343.02 16558.79l0 -2787.68 2847.12 2.93c15.95,0.07 191.89,0.84 194.36,0.49 304.04,-43.92 73.11,9.16 191.17,-82.88 -597.29,-0.97 -2863.16,-73.43 -3270.3,42.8 -26.76,172.72 -102.02,2579.42 37.65,2824.34z"/>
   <path class="fil2" d="M55264.42 21270.86c55.9,-72.49 77.15,17.36 83.67,-319.09l-5.08 -3042.88c279.28,0 2617.69,96.52 2844.74,-78.6l-2878.13 13.51 -45.2 3427.05z"/>
   <path class="fil2" d="M83725.7 29731.98l0 -3482.83 1513.6 0c-95.53,-109.83 -1341.71,-64.15 -1539.37,-24.89 -5.57,481.4 -120,3277.51 25.77,3507.72z"/>
   <path class="fil2" d="M121733.3 28899.91l-46.87 -77.5c-5.63,-7.64 -21.54,-30.52 -27.92,-38.95 -6.67,-8.82 -25.37,-30.87 -31.56,-38.84 -6.34,-8.17 -22.54,-25.66 -33.62,-38.67l43.62 300.1 96.34 -106.14z"/>
  </g>
 </g>
</svg>
